# xmcd
#
# Track frame offsets: 
#        150
#        16879
#        34213
#        57869
#        88826
#        115653
#        157784
#        192618
#        221817
#        242635
#        260818
#        289127
#        308879
#        327716
#
# Disc length: 4604 seconds
#
# Revision: 1
# Processed by: cddbd v1.5.2PL0 Copyright (c) Steve Scherf et al.
# Submitted via: ExactAudioCopy v1.0b3
#
DISCID=d011fa0e
DTITLE=Various Artist - Time Blues  Vol. 17
DYEAR=2003
DGENRE=Blues
TTITLE0=Marty Hall - Fells Like The First Time
TTITLE1=Toth Bagi Band - October
TTITLE2=Sherman Robertson - Fool
TTITLE3=Nick Moss and The Flip Tops - Let's Try This Plain Again
TTITLE4=David Malone - Trying To Make It Over
TTITLE5=V.I.H. - Worried Life Blues
TTITLE6=Joe Nadeau - Just Another Day
TTITLE7=Lil'ed and The Blues Imperials - Got My Mind Made Up 
TTITLE8=Ronnie Earl and Gregg Allman - Everyday Kinda Man
TTITLE9=Chicago Bob Nelson - Been Down So Long 
TTITLE10=Big James and The Chicago Playboys - I'll Never Be The Same
TTITLE11=Powerhouse - Hard Time
TTITLE12=Robert Lucas - Trust Me
TTITLE13=Roy Rogers - Remembering You
EXTD=
EXTT0=
EXTT1=
EXTT2=
EXTT3=
EXTT4=
EXTT5=
EXTT6=
EXTT7=
EXTT8=
EXTT9=
EXTT10=
EXTT11=
EXTT12=
EXTT13=
PLAYORDER=
